<svg width="374" height="374" viewBox="0 0 374 365" fill="none" xmlns="http://www.w3.org/2000/svg">
<rect x="18.5" y="239.5" width="347" height="117" rx="58.5" fill="#8C4410" stroke="black" stroke-width="17"/>
<mask id="path-2-outside-1_0_1" maskUnits="userSpaceOnUse" x="54.3079" y="0" width="244" height="235" fill="black">
<rect fill="white" x="54.3079" width="244" height="235"/>
<path fill-rule="evenodd" clip-rule="evenodd" d="M98.7355 140.927C132.541 115.47 154.399 74.997 154.399 29.4189C154.399 27.2675 154.351 25.1276 154.254 23C193.249 32.8676 223.208 65.4162 229.273 105.787C251.959 104.267 273.297 118.912 279.405 141.705C281.288 148.735 281.53 155.817 280.365 162.546C278.176 162.904 275.985 163.374 273.798 163.96L83.3307 214.995C79.0723 209.81 75.8254 203.654 73.9756 196.75C67.9379 174.217 78.7727 151.138 98.7355 140.927Z"/>
</mask>
<path fill-rule="evenodd" clip-rule="evenodd" d="M98.7355 140.927C132.541 115.47 154.399 74.997 154.399 29.4189C154.399 27.2675 154.351 25.1276 154.254 23C193.249 32.8676 223.208 65.4162 229.273 105.787C251.959 104.267 273.297 118.912 279.405 141.705C281.288 148.735 281.53 155.817 280.365 162.546C278.176 162.904 275.985 163.374 273.798 163.96L83.3307 214.995C79.0723 209.81 75.8254 203.654 73.9756 196.75C67.9379 174.217 78.7727 151.138 98.7355 140.927Z" fill="#8C4410"/>
<path d="M98.7355 140.927L106.477 156.062L107.787 155.392L108.962 154.507L98.7355 140.927ZM154.254 23L158.425 6.51948L136.236 0.904666L137.272 23.7691L154.254 23ZM229.273 105.787L212.462 108.312L214.788 123.795L230.41 122.749L229.273 105.787ZM279.405 141.705L262.984 146.105L262.984 146.105L279.405 141.705ZM280.365 162.546L283.108 179.323L295.05 177.37L297.115 165.447L280.365 162.546ZM273.798 163.96L278.198 180.381L278.198 180.381L273.798 163.96ZM83.3307 214.995L70.1926 225.784L77.1464 234.252L87.7306 231.416L83.3307 214.995ZM73.9756 196.75L90.3963 192.35L73.9756 196.75ZM137.399 29.4189C137.399 69.4319 118.233 104.963 88.5091 127.347L108.962 154.507C146.849 125.977 171.399 80.5622 171.399 29.4189H137.399ZM137.272 23.7691C137.356 25.6406 137.399 27.5242 137.399 29.4189H171.399C171.399 27.0109 171.345 24.6145 171.237 22.2309L137.272 23.7691ZM246.085 103.261C238.992 56.0529 203.996 18.0514 158.425 6.51948L150.084 39.4805C182.501 47.6838 207.424 74.7794 212.462 108.312L246.085 103.261ZM230.41 122.749C245.15 121.761 259.018 131.305 262.984 146.105L295.826 137.306C287.576 106.519 258.767 86.7728 228.137 88.8248L230.41 122.749ZM262.984 146.105C264.217 150.706 264.367 155.295 263.614 159.645L297.115 165.447C298.693 156.339 298.36 146.764 295.826 137.305L262.984 146.105ZM277.621 145.769C274.876 146.218 272.132 146.807 269.398 147.539L278.198 180.381C279.838 179.941 281.477 179.59 283.108 179.323L277.621 145.769ZM269.398 147.539L78.9308 198.575L87.7306 231.416L278.198 180.381L269.398 147.539ZM96.4688 204.207C93.7166 200.855 91.6071 196.869 90.3963 192.35L57.5549 201.15C60.0437 210.438 64.4281 218.764 70.1926 225.784L96.4688 204.207ZM90.3963 192.35C86.4763 177.72 93.5032 162.698 106.477 156.062L90.9938 125.792C64.0422 139.578 49.3995 170.714 57.5549 201.15L90.3963 192.35Z" fill="black" mask="url(#path-2-outside-1_0_1)"/>
<rect x="-3.79212" y="245.589" width="353.022" height="117" rx="58.5" transform="rotate(-15 -3.79212 245.589)" fill="#8C4410" stroke="black" stroke-width="17"/>
</svg>
