<?xml version="1.0" encoding="utf-8"?>
<!-- Generator: Adobe Illustrator 25.4.0, SVG Export Plug-In . SVG Version: 6.00 Build 0)  -->
<svg version="1.1" id="Layer_1" xmlns="http://www.w3.org/2000/svg" xmlns:xlink="http://www.w3.org/1999/xlink" x="0px" y="0px"
	 width="1120px" height="300px" viewBox="0 0 1120 300" style="enable-background:new 0 0 1120 300;" xml:space="preserve">
<style type="text/css">
	.st0{enable-background:new    ;}
</style>
<g class="st0">
	<path d="M519.9,80.9V20.1h8.1v60.8H519.9z"/>
	<path d="M542.1,80.9V20.1h8.3l32,47.8V20.1h7.7v60.8h-8.3l-32-47.8v47.8H542.1z"/>
	<path d="M603.5,80.9V20.1h8.3l32,47.8V20.1h7.7v60.8h-8.3l-32-47.8v47.8H603.5z"/>
	<path d="M662.5,51.3c0-10.1,2.7-18,8.1-23.7c5.4-5.7,12.4-8.6,21-8.6c5.6,0,10.7,1.3,15.2,4c4.5,2.7,7.9,6.4,10.3,11.2
		c2.4,4.8,3.5,10.2,3.5,16.3c0,6.2-1.2,11.7-3.7,16.6c-2.5,4.9-6,8.6-10.6,11.1c-4.6,2.5-9.5,3.8-14.8,3.8c-5.7,0-10.8-1.4-15.4-4.2
		c-4.5-2.8-7.9-6.5-10.3-11.3C663.7,61.7,662.5,56.7,662.5,51.3z M670.8,51.4c0,7.3,2,13.1,5.9,17.3c3.9,4.2,8.9,6.3,14.8,6.3
		c6.1,0,11-2.1,15-6.4c3.9-4.3,5.9-10.3,5.9-18.1c0-5-0.8-9.3-2.5-13c-1.7-3.7-4.1-6.6-7.3-8.6c-3.2-2-6.8-3-10.9-3
		c-5.7,0-10.6,2-14.7,5.9C672.8,35.7,670.8,42.3,670.8,51.4z"/>
	<path d="M748.4,80.9l-23.6-60.8h8.7l15.8,44.2c1.3,3.5,2.3,6.9,3.2,10c0.9-3.3,2-6.6,3.3-10l16.4-44.2h8.2l-23.8,60.8H748.4z"/>
	<path d="M774.8,80.9l23.4-60.8h8.7l24.9,60.8h-9.2l-7.1-18.4H790l-6.7,18.4H774.8z M792.3,56h20.6l-6.4-16.9
		c-1.9-5.1-3.4-9.3-4.3-12.6c-0.8,3.9-1.9,7.8-3.3,11.6L792.3,56z"/>
	<path d="M847.3,80.9V27.3h-20v-7.2h48.2v7.2h-20.1v53.7H847.3z"/>
	<path d="M885.1,80.9V20.1h8.1v60.8H885.1z"/>
	<path d="M924.8,80.9l-23.6-60.8h8.7l15.8,44.2c1.3,3.5,2.3,6.9,3.2,10c0.9-3.3,2-6.6,3.3-10l16.4-44.2h8.2L933,80.9H924.8z"/>
	<path d="M964.2,80.9V20.1h44v7.2h-35.9v18.6h33.7v7.1h-33.7v20.7h37.4v7.2H964.2z"/>
</g>
<g class="st0">
	<path d="M518.7,179.9v-60.8h44v7.2h-35.9v18.6h33.7v7.1h-33.7v20.7h37.4v7.2H518.7z"/>
	<path d="M575.2,179.9v-60.8h8.3l32,47.8v-47.8h7.7v60.8h-8.3l-32-47.8v47.8H575.2z"/>
	<path d="M665.1,156.1v-7.1l25.8,0v22.6c-4,3.2-8,5.5-12.2,7.1s-8.5,2.4-12.9,2.4c-6,0-11.4-1.3-16.3-3.8
		c-4.9-2.6-8.6-6.3-11.1-11.1c-2.5-4.8-3.7-10.3-3.7-16.2c0-5.9,1.2-11.4,3.7-16.6c2.5-5.1,6-8.9,10.7-11.4s10-3.7,16.1-3.7
		c4.4,0,8.4,0.7,11.9,2.1c3.6,1.4,6.3,3.4,8.4,6c2,2.5,3.6,5.9,4.6,10l-7.3,2c-0.9-3.1-2-5.5-3.4-7.3c-1.4-1.8-3.3-3.2-5.8-4.3
		s-5.3-1.6-8.4-1.6c-3.7,0-6.9,0.6-9.5,1.7c-2.7,1.1-4.8,2.6-6.5,4.4c-1.6,1.8-2.9,3.8-3.8,6c-1.5,3.8-2.3,7.8-2.3,12.2
		c0,5.4,0.9,10,2.8,13.6c1.9,3.7,4.6,6.4,8.2,8.1c3.6,1.8,7.4,2.7,11.4,2.7c3.5,0,6.9-0.7,10.2-2s5.8-2.8,7.6-4.3v-11.3H665.1z"/>
	<path d="M704.1,179.9v-60.8h8.1v60.8H704.1z"/>
	<path d="M726.3,179.9v-60.8h8.3l32,47.8v-47.8h7.7v60.8H766l-32-47.8v47.8H726.3z"/>
	<path d="M787.9,179.9v-60.8h44v7.2H796v18.6h33.7v7.1H796v20.7h37.4v7.2H787.9z"/>
	<path d="M844.6,179.9v-60.8h44v7.2h-35.9v18.6h33.7v7.1h-33.7v20.7H890v7.2H844.6z"/>
	<path d="M901.3,179.9v-60.8h27c5.4,0,9.5,0.5,12.4,1.6s5.1,3,6.8,5.8c1.7,2.8,2.5,5.8,2.5,9.2c0,4.3-1.4,8-4.2,10.9
		c-2.8,3-7.1,4.8-12.9,5.6c2.1,1,3.7,2,4.9,3c2.4,2.2,4.6,4.9,6.7,8.1l10.6,16.6h-10.1l-8.1-12.7c-2.4-3.7-4.3-6.4-5.8-8.4
		c-1.5-1.9-2.9-3.3-4.1-4.1c-1.2-0.8-2.4-1.3-3.7-1.6c-0.9-0.2-2.4-0.3-4.5-0.3h-9.3v27H901.3z M909.3,146h17.3
		c3.7,0,6.6-0.4,8.6-1.1s3.7-2,4.7-3.7s1.6-3.5,1.6-5.5c0-2.9-1-5.2-3.1-7.1c-2.1-1.9-5.4-2.8-9.9-2.8h-19.3V146z"/>
	<path d="M963.9,179.9v-60.8h8.1v60.8H963.9z"/>
	<path d="M986.1,179.9v-60.8h8.3l32,47.8v-47.8h7.7v60.8h-8.3l-32-47.8v47.8H986.1z"/>
	<path d="M1076,156.1v-7.1l25.8,0v22.6c-4,3.2-8,5.5-12.2,7.1c-4.2,1.6-8.5,2.4-12.9,2.4c-6,0-11.4-1.3-16.3-3.8
		c-4.9-2.6-8.6-6.3-11.1-11.1c-2.5-4.8-3.7-10.3-3.7-16.2c0-5.9,1.2-11.4,3.7-16.6c2.5-5.1,6-8.9,10.7-11.4s10-3.7,16.1-3.7
		c4.4,0,8.4,0.7,11.9,2.1c3.6,1.4,6.3,3.4,8.4,6c2,2.5,3.6,5.9,4.6,10l-7.3,2c-0.9-3.1-2-5.5-3.4-7.3c-1.4-1.8-3.3-3.2-5.8-4.3
		c-2.5-1.1-5.3-1.6-8.4-1.6c-3.7,0-6.9,0.6-9.5,1.7c-2.7,1.1-4.8,2.6-6.5,4.4c-1.6,1.8-2.9,3.8-3.8,6c-1.5,3.8-2.3,7.8-2.3,12.2
		c0,5.4,0.9,10,2.8,13.6c1.9,3.7,4.6,6.4,8.2,8.1c3.6,1.8,7.4,2.7,11.4,2.7c3.5,0,6.9-0.7,10.2-2s5.8-2.8,7.6-4.3v-11.3H1076z"/>
</g>
<g class="st0">
	<path d="M515.8,257.4l7.6-0.7c0.4,3,1.2,5.5,2.5,7.5c1.3,2,3.4,3.5,6.1,4.7c2.8,1.2,5.9,1.8,9.3,1.8c3.1,0,5.8-0.5,8.1-1.4
		c2.4-0.9,4.1-2.2,5.2-3.8c1.1-1.6,1.7-3.3,1.7-5.2c0-1.9-0.6-3.6-1.7-5c-1.1-1.4-2.9-2.6-5.5-3.6c-1.6-0.6-5.2-1.6-10.8-3
		c-5.6-1.3-9.5-2.6-11.7-3.8c-2.9-1.5-5.1-3.4-6.5-5.7c-1.4-2.3-2.1-4.8-2.1-7.6c0-3.1,0.9-5.9,2.6-8.6s4.3-4.7,7.6-6.1
		c3.3-1.4,7.1-2.1,11.2-2.1c4.5,0,8.5,0.7,11.9,2.2c3.4,1.5,6.1,3.6,7.9,6.4c1.9,2.8,2.8,6,3,9.6l-7.7,0.6c-0.4-3.8-1.8-6.8-4.2-8.7
		c-2.4-2-5.9-2.9-10.6-2.9c-4.9,0-8.4,0.9-10.6,2.7c-2.2,1.8-3.3,3.9-3.3,6.5c0,2.2,0.8,4,2.4,5.4c1.5,1.4,5.6,2.9,12.1,4.3
		c6.5,1.5,11,2.8,13.5,3.9c3.5,1.6,6.2,3.7,7.8,6.2c1.7,2.5,2.5,5.4,2.5,8.7c0,3.2-0.9,6.3-2.8,9.2c-1.9,2.9-4.5,5.1-8,6.7
		c-3.5,1.6-7.4,2.4-11.7,2.4c-5.5,0-10.1-0.8-13.8-2.4c-3.7-1.6-6.6-4-8.8-7.2C517,265.1,515.9,261.5,515.8,257.4z"/>
	<path d="M575.4,276.9v-60.8h44v7.2h-35.9v18.6h33.7v7.1h-33.7v20.7h37.4v7.2H575.4z"/>
	<path d="M632.1,276.9v-60.8h27c5.4,0,9.5,0.5,12.4,1.6s5.1,3,6.8,5.8c1.7,2.8,2.5,5.8,2.5,9.2c0,4.3-1.4,8-4.2,10.9
		c-2.8,3-7.1,4.8-12.9,5.6c2.1,1,3.7,2,4.9,3c2.4,2.2,4.6,4.9,6.7,8.1l10.6,16.6h-10.1l-8.1-12.7c-2.4-3.7-4.3-6.4-5.8-8.4
		c-1.5-1.9-2.9-3.3-4.1-4.1c-1.2-0.8-2.4-1.3-3.7-1.6c-0.9-0.2-2.4-0.3-4.5-0.3h-9.3v27H632.1z M640.1,243h17.3
		c3.7,0,6.6-0.4,8.6-1.1s3.7-2,4.7-3.7s1.6-3.5,1.6-5.5c0-2.9-1-5.2-3.1-7.1c-2.1-1.9-5.4-2.8-9.9-2.8h-19.3V243z"/>
	<path d="M709.2,276.9l-23.6-60.8h8.7l15.8,44.2c1.3,3.5,2.3,6.9,3.2,10c0.9-3.3,2-6.6,3.3-10l16.4-44.2h8.2l-23.8,60.8H709.2z"/>
	<path d="M749.9,276.9v-60.8h8.1v60.8H749.9z"/>
	<path d="M815.5,255.6l8.1,2c-1.7,6.6-4.7,11.7-9.1,15.1c-4.4,3.5-9.7,5.2-16.1,5.2c-6.6,0-11.9-1.3-16-4c-4.1-2.7-7.2-6.5-9.4-11.6
		c-2.1-5.1-3.2-10.5-3.2-16.3c0-6.3,1.2-11.9,3.6-16.6c2.4-4.7,5.9-8.3,10.3-10.7c4.5-2.4,9.4-3.7,14.8-3.7c6.1,0,11.2,1.6,15.4,4.6
		c4.2,3.1,7,7.5,8.7,13.1l-7.9,1.9c-1.4-4.4-3.5-7.6-6.1-9.7c-2.7-2-6.1-3-10.1-3c-4.7,0-8.6,1.1-11.7,3.4c-3.1,2.2-5.3,5.2-6.6,9
		c-1.3,3.8-1.9,7.7-1.9,11.7c0,5.2,0.8,9.7,2.3,13.6c1.5,3.9,3.9,6.7,7,8.7s6.6,2.9,10.3,2.9c4.5,0,8.3-1.3,11.5-3.9
		C812.3,264.6,814.4,260.7,815.5,255.6z"/>
	<path d="M833.7,276.9v-60.8h44v7.2h-35.9v18.6h33.7v7.1h-33.7v20.7h37.4v7.2H833.7z"/>
	<path d="M887.4,257.4l7.6-0.7c0.4,3,1.2,5.5,2.5,7.5c1.3,2,3.4,3.5,6.1,4.7c2.8,1.2,5.9,1.8,9.3,1.8c3.1,0,5.8-0.5,8.1-1.4
		c2.4-0.9,4.1-2.2,5.2-3.8s1.7-3.3,1.7-5.2c0-1.9-0.6-3.6-1.7-5c-1.1-1.4-2.9-2.6-5.5-3.6c-1.6-0.6-5.2-1.6-10.8-3
		c-5.6-1.3-9.5-2.6-11.7-3.8c-2.9-1.5-5.1-3.4-6.5-5.7c-1.4-2.3-2.1-4.8-2.1-7.6c0-3.1,0.9-5.9,2.6-8.6c1.7-2.7,4.3-4.7,7.6-6.1
		c3.3-1.4,7.1-2.1,11.2-2.1c4.5,0,8.5,0.7,11.9,2.2c3.4,1.5,6.1,3.6,7.9,6.4c1.9,2.8,2.8,6,3,9.6l-7.7,0.6c-0.4-3.8-1.8-6.8-4.2-8.7
		c-2.4-2-5.9-2.9-10.6-2.9c-4.9,0-8.4,0.9-10.6,2.7c-2.2,1.8-3.3,3.9-3.3,6.5c0,2.2,0.8,4,2.4,5.4c1.5,1.4,5.6,2.9,12.1,4.3
		c6.5,1.5,11,2.8,13.5,3.9c3.5,1.6,6.2,3.7,7.8,6.2c1.7,2.5,2.5,5.4,2.5,8.7c0,3.2-0.9,6.3-2.8,9.2c-1.9,2.9-4.5,5.1-8,6.7
		c-3.5,1.6-7.4,2.4-11.7,2.4c-5.5,0-10.1-0.8-13.8-2.4c-3.7-1.6-6.6-4-8.8-7.2C888.7,265.1,887.6,261.5,887.4,257.4z"/>
</g>
<polygon points="480,120 480,280 320,280 320,220 420,220 420,120 "/>
<polygon points="480,20 480,80 380,80 380,180 320,180 320,20 "/>
<rect x="120" y="220" width="160" height="60"/>
<rect x="120" y="120" width="160" height="60"/>
<rect x="120" y="20" width="160" height="60"/>
<rect x="20" y="20" width="60" height="260"/>
</svg>
