<?xml version="1.0" encoding="utf-8"?>
<!-- Generator: Adobe Illustrator 25.4.0, SVG Export Plug-In . SVG Version: 6.00 Build 0)  -->
<svg version="1.1" id="Layer_1" xmlns="http://www.w3.org/2000/svg" xmlns:xlink="http://www.w3.org/1999/xlink" x="0px" y="0px"
	 width="265px" height="85px" viewBox="0 0 265 85" style="enable-background:new 0 0 265 85;" xml:space="preserve">
<style type="text/css">
	.st0{fill:#CAB556;}
	.st1{fill:#68AA63;}
	.st2{fill:#FFFFFF;}
</style>
<g>
	<rect class="st0" width="40" height="40"/>
	<rect x="45" class="st0" width="40" height="40"/>
	<rect x="90" class="st0" width="40" height="40"/>
	<rect x="135" class="st0" width="40" height="40"/>
	<rect x="180" class="st0" width="40" height="40"/>
	<rect x="225" class="st0" width="40" height="40"/>
</g>
<g>
	<rect y="45" class="st1" width="40" height="40"/>
	<rect x="45" y="45" class="st1" width="40" height="40"/>
	<rect x="90" y="45" class="st1" width="40" height="40"/>
	<rect x="135" y="45" class="st1" width="40" height="40"/>
	<rect x="180" y="45" class="st1" width="40" height="40"/>
	<rect x="225" y="45" class="st1" width="40" height="40"/>
</g>
<g>
	<g>
		<path class="st2" d="M26.5,29.1h-3.7l-2.9-11.6l-3,11.6h-3.6L8.9,11.6h3.6L15.3,23l2.9-11.5h3.5l2.9,11.5l2.9-11.5h3.5L26.5,29.1z
			"/>
	</g>
	<g>
		<path class="st2" d="M72.6,20.4c0,3.1-0.6,5.3-1.9,6.9s-3.2,2.3-5.6,2.3c-2.6,0-4.5-0.8-5.7-2.4s-1.8-3.9-1.8-6.7
			c0-2.9,0.6-5.2,1.8-6.8s3.1-2.4,5.7-2.4c2.6,0,4.5,0.8,5.7,2.4S72.6,17.4,72.6,20.4z M68.9,20.4c0-2.1-0.3-3.6-0.9-4.6
			s-1.6-1.4-3-1.4s-2.4,0.5-3,1.4s-0.9,2.5-0.9,4.6s0.3,3.6,0.9,4.6s1.6,1.4,3,1.4c1.4,0,2.4-0.5,3-1.4S68.9,22.4,68.9,20.4z"/>
	</g>
	<g>
		<path class="st2" d="M113.6,29.1l-4.5-6.7h-1.8v6.7h-3.6V11.6h6.4c2.3,0,3.9,0.4,5,1.2s1.6,2.1,1.6,4c0,1.5-0.3,2.7-0.9,3.6
			s-1.5,1.5-2.7,1.7l4.7,7.1H113.6z M113,16.9c0-0.9-0.2-1.5-0.7-1.8s-1.2-0.5-2.2-0.5h-2.8v4.7h2.6c0.8,0,1.4-0.1,1.9-0.2
			s0.7-0.4,0.9-0.7S113,17.6,113,16.9z"/>
	</g>
	<g>
		<path class="st2" d="M162.2,20.4c0,2.1-0.3,3.8-0.9,5.1s-1.5,2.2-2.6,2.8s-2.8,0.9-5,0.9h-5.4V11.6h5.3c2.1,0,3.7,0.3,4.9,0.9
			s2.1,1.5,2.7,2.8S162.2,18.3,162.2,20.4z M158.5,20.3c0-1.5-0.2-2.7-0.5-3.4s-0.8-1.3-1.5-1.6s-1.8-0.5-3.2-0.5H152v11h1.4
			c1.4,0,2.5-0.2,3.2-0.5s1.2-0.9,1.5-1.6S158.5,21.8,158.5,20.3z"/>
	</g>
	<g>
		<path class="st2" d="M195.3,29.1V11.6h3.6v14.3h7.4v3.3H195.3z"/>
	</g>
	<g>
		<path class="st2" d="M239.6,29.1V11.6H251v3.2h-7.8v3.7h6.6v3.2h-6.6v4.2h7.8v3.3H239.6z"/>
	</g>
</g>
<g>
	<g>
		<path class="st2" d="M26.7,69.1c0,1.8-0.6,3.1-1.7,4s-2.9,1.4-5.1,1.4c-1.6,0-2.9-0.3-4.1-0.8s-2.1-1.4-2.8-2.5l2.8-2.1
			c0.4,0.6,0.8,1,1.2,1.3s0.8,0.5,1.3,0.7s1.1,0.2,1.7,0.2c1,0,1.7-0.2,2.3-0.5s0.8-0.8,0.8-1.5c0-0.4-0.1-0.7-0.3-1
			s-0.5-0.5-0.9-0.7s-1-0.4-2-0.7c-0.9-0.2-1.8-0.5-2.6-0.7s-1.5-0.6-2.1-1s-1.1-0.9-1.4-1.5s-0.5-1.4-0.5-2.3c0-1.7,0.6-3,1.7-3.9
			s2.7-1.4,4.8-1.4c3,0,5.2,1,6.4,3.1l-2.7,2.1c-0.5-0.7-1-1.3-1.6-1.6s-1.3-0.5-2.1-0.5s-1.5,0.2-2,0.5S17,60.6,17,61.2
			c0,0.6,0.3,1,0.8,1.3s1.5,0.6,2.8,0.9c0.7,0.2,1.5,0.4,2.2,0.6s1.4,0.5,1.9,0.9s1,0.9,1.4,1.6S26.7,68,26.7,69.1z"/>
	</g>
	<g>
		<path class="st2" d="M72.6,65.4c0,3.1-0.6,5.3-1.9,6.9s-3.2,2.3-5.6,2.3c-2.6,0-4.5-0.8-5.7-2.4s-1.8-3.9-1.8-6.7
			c0-2.9,0.6-5.2,1.8-6.8s3.1-2.4,5.7-2.4c2.6,0,4.5,0.8,5.7,2.4S72.6,62.4,72.6,65.4z M68.9,65.4c0-2.1-0.3-3.6-0.9-4.6
			s-1.6-1.4-3-1.4s-2.4,0.5-3,1.4s-0.9,2.5-0.9,4.6s0.3,3.6,0.9,4.6s1.6,1.4,3,1.4c1.4,0,2.4-0.5,3-1.4S68.9,67.4,68.9,65.4z"/>
	</g>
	<g>
		<path class="st2" d="M105.3,74.1V56.6h3.6v14.3h7.4v3.3H105.3z"/>
	</g>
	<g>
		<path class="st2" d="M157.1,74.1h-4.2l-5.4-17.6h3.6l4,13.1l3.9-13.1h3.6L157.1,74.1z"/>
	</g>
	<g>
		<path class="st2" d="M194.6,74.1V56.6H206v3.2h-7.8v3.7h6.6v3.2h-6.6v4.2h7.8v3.3H194.6z"/>
	</g>
	<g>
		<path class="st2" d="M248.6,74.1l-4.5-6.7h-1.8v6.7h-3.6V56.6h6.4c2.3,0,3.9,0.4,5,1.2c1,0.8,1.6,2.1,1.6,4c0,1.5-0.3,2.7-0.9,3.6
			s-1.5,1.5-2.7,1.7l4.7,7.1H248.6z M248,61.9c0-0.9-0.2-1.5-0.7-1.8c-0.5-0.3-1.2-0.5-2.2-0.5h-2.8v4.7h2.6c0.8,0,1.4-0.1,1.9-0.2
			s0.7-0.4,0.9-0.7C247.9,63.1,248,62.6,248,61.9z"/>
	</g>
</g>
</svg>
